<svg width="100" height="100" viewBox="0 0 100 100" fill="none" xmlns="http://www.w3.org/2000/svg">
<path d="M100 50C100 77.6142 77.6142 100 50 100C22.3858 100 0 77.6142 0 50C0 22.3858 22.3858 0 50 0C77.6142 0 100 22.3858 100 50Z" fill="#E6E6E6"/>
<path d="M82.9431 87.5898C74.1366 95.3187 62.607 100 49.9767 100C37.3463 100 25.8052 95.3187 17.0103 87.5898C24.4147 75.8401 36.4193 68.1924 49.9767 68.1924C63.534 68.1924 75.5387 75.8285 82.9431 87.5898Z" fill="white"/>
<path d="M49.9766 59.8493C61.1311 59.8493 70.1736 50.8069 70.1736 39.6524C70.1736 28.4979 61.1311 19.4554 49.9766 19.4554C38.8221 19.4554 29.7796 28.4979 29.7796 39.6524C29.7796 50.8069 38.8221 59.8493 49.9766 59.8493Z" fill="white"/>
</svg>
